<svg xmlns="http://www.w3.org/2000/svg" viewBox="0 0 64 64">
  <defs>
    <linearGradient id="dm" x1="0" y1="1" x2="1" y2="0">
      <stop offset="0" stop-color="#ffb23d"/>
      <stop offset=".28" stop-color="#f05f22"/>
      <stop offset=".58" stop-color="#ec178d"/>
      <stop offset=".8" stop-color="#d332ff"/>
      <stop offset="1" stop-color="#9a2fc6"/>
    </linearGradient>
  </defs>
  <rect x="1" y="1" width="62" height="62" rx="15" fill="#fff" stroke="#111" stroke-width="2"/>
  <path d="M17 12c-5.8 0-9.1 5.8-8.2 11.6l3.3 18.3c.8 5 6.6 5.8 9.1 1.7l2.5-6.6c.8-2.5 4.1-2.5 5 0l2.5 6.6c2.5 4.1 8.3 3.3 9.1-1.7l3.3-18.3C44.5 17.8 41.2 12 35.4 12c-3.3 0-5.8 2.5-9.2 2.5S20.4 12 17 12Z" fill="none" stroke="#111" stroke-width="2.6" stroke-linecap="round" stroke-linejoin="round"/>
  <rect x="34" y="36" width="27" height="23" rx="7" fill="#fff" stroke="#fff" stroke-width="3"/>
  <g transform="translate(24.85 30.85) scale(.15)" fill="url(#dm)">
    <path d="M207.65 61.13h-14.8c-.14 0-.26 0-.39 0a5 5 0 0 0-4.33 2.4q-7.83 11-15.57 22c-2.42 3.43-4.79 6.89-7.23 10.3a1.66 1.66 0 0 1-2.91 0q-1.71-2.5-3.46-5-4.71-6.6-9.42-13.17c-3.56-5-6.77-9.51-12.6-11.91a49.26 49.26 0 0 0-17.41-3.53H86.93a5.41 5.41 0 0 0-5.47 5.41v87.7c0 2.25 1.1 6.72 4.52 7.22a107.09 107.09 0 0 0 14 .85c13.7 0 34.63-2.36 49.13-14.87a4.87 4.87 0 0 0 1.17-6.1 4.77 4.77 0 0 0-7.27-1.23c-15.9 13.85-42.95 13-52.34 12.26V77a4.74 4.74 0 0 1 4.72-4.75c5.86 0 12.92 0 18.77 0 4.89 0 9.72 0 14.53 1.43 10.07 3 15.74 13.44 21.63 21.49 3.41 4.67 6.62 9.48 10.07 14.12a4.44 4.44 0 0 0 7.44-.07c3.41-4.59 6.65-9.32 9.92-14 4.83-7 9.67-13.93 14.4-21 .79-1.17 1.56-2.36 2.27-3.58h10.9v85.6a4.56 4.56 0 0 0 4.8 5.09 4.73 4.73 0 0 0 4.31-4.81V67.89a6.76 6.76 0 0 0-6.77-6.76Z"/>
    <path d="M189.08 95.83a6 6 0 0 0-2.72 2.1c-4.69 6.45-9.28 13-13.91 19.47-2.35 3.3-4.65 6.62-7 9.87-1.23 1.67-2.06 1.58-3.19-.11q-2-3-4.08-6c-5.42-7.86-10.74-15.79-16.3-23.55-4.76-6.63-11.07-16.9-20.26-17.28-6.33-.26-12 .12-18.71 0a2.83 2.83 0 0 0-2.9 2.84v61.33l4.6.17c6.28 0 25.29-.93 32-11.86a5 5 0 0 0-.93-6.46 4.76 4.76 0 0 0-7.1 1.32c-2.87 4.92-12.94 7-20.85 7.4V89.56c8.4 0 12.07-.18 14.85 2.16 3.34 2.81 6.64 7.22 9.05 10.79q6.6 9.78 13.33 19.45c3.19 4.59 6.44 9.13 9.59 13.75 0 0 7.21 11.62 15.26.08l3.64-5.28c2.93-4.26 7.8-11.24 10.74-15.49v41.78a4.5 4.5 0 0 0 3.99 4.51 4.59 4.59 0 0 0 4.63-4.79v-56.3c0-3.67-2.49-5.53-5.92-4.39Z"/>
  </g>
</svg>
