<svg xmlns="http://www.w3.org/2000/svg" width="1600" height="1460" viewBox="0 0 1600 1460" role="img" aria-labelledby="title desc">
  <title id="title">Google-Suchergebnisse der Zahnarztpraxis Dres. Zimny</title>
  <desc id="desc">Mehrere Behandlungsthemen der Praxis erscheinen als eigenständige Google-Suchergebnisse.</desc>
  <rect width="1600" height="1120" fill="#fff"/>
  <style>
    .brand{font:600 29px Arial,sans-serif;fill:#252525}.url{font:23px Arial,sans-serif;fill:#51545a}.title{font:38px Arial,sans-serif;fill:#1a0dab}.copy{font:25px Arial,sans-serif;fill:#4b4e54}.dot{fill:#139a86}.rule{stroke:#eef0f4;stroke-width:2}
  </style>
  <g transform="translate(56 54)">
    <g>
      <circle cx="30" cy="26" r="28" fill="#f7f8fa" stroke="#d7dbe1" stroke-width="2"/><path d="M14 32V18c0-9 8-13 15-9 5-4 17 0 17 10v10" fill="none" stroke="#139a86" stroke-width="4" stroke-linecap="round"/>
      <text class="brand" x="82" y="20">dr-zimny.de</text><text class="url" x="82" y="53">https://www.dr-zimny.de › halitosis</text>
      <text class="title" x="0" y="112">Halitosis Treatment – Zahnarztpraxis Dres. Zimny Berlin</text>
      <text class="copy" x="0" y="160">Behandlung von Mundgeruch: Ursachen erkennen und gezielt behandeln.</text>
    </g>
    <line class="rule" x1="0" y1="205" x2="1488" y2="205"/>
    <g transform="translate(0 242)">
      <circle cx="30" cy="26" r="28" fill="#f7f8fa" stroke="#d7dbe1" stroke-width="2"/><path d="M14 32V18c0-9 8-13 15-9 5-4 17 0 17 10v10" fill="none" stroke="#139a86" stroke-width="4" stroke-linecap="round"/>
      <text class="brand" x="82" y="20">dr-zimny.de</text><text class="url" x="82" y="53">https://www.dr-zimny.de › anaesthesie</text>
      <text class="title" x="0" y="112">Anaesthetic Treatment – Dentists Dres. Zimny Berlin</text>
      <text class="copy" x="0" y="160">Zahnbehandlung unter Vollnarkose in der Praxis in Berlin.</text>
    </g>
    <line class="rule" x1="0" y1="447" x2="1488" y2="447"/>
    <g transform="translate(0 484)">
      <circle cx="30" cy="26" r="28" fill="#f7f8fa" stroke="#d7dbe1" stroke-width="2"/><path d="M14 32V18c0-9 8-13 15-9 5-4 17 0 17 10v10" fill="none" stroke="#139a86" stroke-width="4" stroke-linecap="round"/>
      <text class="brand" x="82" y="20">dr-zimny.de</text><text class="url" x="82" y="53">https://www.dr-zimny.de › Leistungen</text>
      <text class="title" x="0" y="112">Schnarchtherapie – Zahnarztpraxis Dres. Zimny Berlin</text>
      <text class="copy" x="0" y="160">Individuelle Behandlung von Schnarchen und nächtlichen Atemaussetzern.</text>
    </g>
    <line class="rule" x1="0" y1="689" x2="1488" y2="689"/>
    <g transform="translate(0 726)">
      <circle cx="30" cy="26" r="28" fill="#f7f8fa" stroke="#d7dbe1" stroke-width="2"/><path d="M14 32V18c0-9 8-13 15-9 5-4 17 0 17 10v10" fill="none" stroke="#139a86" stroke-width="4" stroke-linecap="round"/>
      <text class="brand" x="82" y="20">dr-zimny.de</text><text class="url" x="82" y="53">https://www.dr-zimny.de › orthodontics</text>
      <text class="title" x="0" y="112">Treatments Orthodontics / Invisalign – Berlin – dr-zimny.de</text>
      <text class="copy" x="0" y="160">Aligner-Behandlung mit Invisalign. Online-Terminvereinbarung.</text>
    </g>
    <line class="rule" x1="0" y1="931" x2="1488" y2="931"/>
    <g transform="translate(0 968)">
      <circle cx="30" cy="26" r="28" fill="#f7f8fa" stroke="#d7dbe1" stroke-width="2"/><path d="M14 32V18c0-9 8-13 15-9 5-4 17 0 17 10v10" fill="none" stroke="#139a86" stroke-width="4" stroke-linecap="round"/>
      <text class="brand" x="82" y="20">dr-zimny.de</text><text class="url" x="82" y="53">https://www.dr-zimny.de › cranio</text>
      <text class="title" x="0" y="112">Craniomandibular dysfunction – Berlin – dr-zimny.de</text>
    </g>
    <line class="rule" x1="0" y1="1138" x2="1488" y2="1138"/>
    <g transform="translate(0 1170)">
      <circle cx="30" cy="26" r="28" fill="#f7f8fa" stroke="#d7dbe1" stroke-width="2"/><path d="M14 32V18c0-9 8-13 15-9 5-4 17 0 17 10v10" fill="none" stroke="#139a86" stroke-width="4" stroke-linecap="round"/>
      <text class="brand" x="82" y="20">dr-zimny.de</text><text class="url" x="82" y="53">https://www.dr-zimny.de › Zahnärzte</text>
      <text class="title" x="0" y="112">Karolin Behrens – Zahnarztpraxis Dres. Zimny Berlin</text>
    </g>
    <g transform="translate(420 1320)">
      <rect width="650" height="112" fill="#fff" stroke="#050505" stroke-width="18"/>
      <text x="75" y="52" font-family="Arial,sans-serif" font-size="40" fill="#4285f4">G</text><text x="108" y="52" font-family="Arial,sans-serif" font-size="30" fill="#fbbc05">oooooooo</text><text x="270" y="52" font-family="Arial,sans-serif" font-size="40" fill="#34a853">g</text><text x="298" y="52" font-family="Arial,sans-serif" font-size="40" fill="#ea4335">l</text><text x="312" y="52" font-family="Arial,sans-serif" font-size="40" fill="#4285f4">e</text>
      <text x="32" y="91" font-family="Arial,sans-serif" font-size="24" fill="#1a0dab">Zurück</text><text x="190" y="91" font-family="Arial,sans-serif" font-size="24" fill="#1a0dab">2  3  4  5  6  7  8  9  10  11</text><text x="545" y="91" font-family="Arial,sans-serif" font-size="24" fill="#1a0dab">Weiter</text>
    </g>
  </g>
</svg>
